<?xml version="1.0" encoding="UTF-8"?>
<svg version="1.1" xmlns="http://www.w3.org/2000/svg" width="900" height="900">
<path d="M0 0 C0.86367188 0.350625 1.72734375 0.70125 2.6171875 1.0625 C18.61791307 8.24039558 27.22451562 21.43681895 35.625 36.1875 C36.8474729 38.30869943 38.07013444 40.42979015 39.29296875 42.55078125 C40.21601807 44.15880615 40.21601807 44.15880615 41.15771484 45.79931641 C44.05878609 50.83947597 47.00030587 55.8558389 49.9375 60.875 C54.78202206 69.16924467 59.58616963 77.4860033 64.375 85.8125 C69.51662348 94.74870174 74.72979462 103.63905613 80 112.5 C88.42297534 126.66438366 96.64825698 140.93880244 104.85449219 155.22949219 C113.2788806 169.89351179 121.80057506 184.49403407 130.44140625 199.03125 C131.03711426 200.03414062 131.63282227 201.03703125 132.24658203 202.0703125 C133.41932175 204.02977736 134.60269213 205.98291731 135.79638672 207.9296875 C136.34697754 208.82945312 136.89756836 209.72921875 137.46484375 210.65625 C137.95460693 211.44837891 138.44437012 212.24050781 138.94897461 213.05664062 C140 215 140 215 140 217 C140.66 217 141.32 217 142 217 C142.26917236 216.28352295 142.53834473 215.5670459 142.81567383 214.82885742 C144.00954874 211.97719207 145.39455543 209.4091377 146.94921875 206.73828125 C147.54210693 205.71549072 148.13499512 204.6927002 148.74584961 203.63891602 C149.38659424 202.54119873 150.02733887 201.44348145 150.6875 200.3125 C151.36304902 199.1498542 152.03825447 197.98700871 152.71313477 196.82397461 C153.76096302 195.01853509 154.80913238 193.21330002 155.85862732 191.40882874 C158.17252837 187.43018845 160.47350261 183.44437085 162.765625 179.453125 C169.8703944 167.08346672 177.05153944 154.76318885 184.35546875 142.51025391 C187.24980021 137.65425647 190.13354384 132.79724304 192.9140625 127.875 C197.53169783 119.72510808 202.21302484 112.58130925 209 106 C209.53625 105.443125 210.0725 104.88625 210.625 104.3125 C221.96702678 93.42415429 238.10667136 89.49791282 253.35302734 89.64819336 C269.68562044 90.14683264 284.26392831 96.93890893 295.63818359 108.69287109 C300.20591123 113.69168194 303.65090056 119.00885223 307 124.875 C307.55196045 125.82479736 308.1039209 126.77459473 308.67260742 127.75317383 C310.45769024 130.83018817 312.22976115 133.91442527 314 137 C315.20399918 139.0900903 316.40842947 141.17993232 317.61328125 143.26953125 C319.47734699 146.50292264 321.34077056 149.7366665 323.20117188 152.97216797 C327.73855651 160.8523398 332.35097066 168.6852541 337 176.5 C342.91015419 186.43645122 348.73293674 196.41904761 354.49609375 206.44140625 C358.63759815 213.64326443 362.8069983 220.82800863 367 228 C371.82451774 236.25217877 376.60993611 244.52586488 381.375 252.8125 C386.51654661 261.74874318 391.72970636 270.63911125 397 279.5 C402.91005432 289.43651159 408.73293582 299.41904601 414.49609375 309.44140625 C418.63759815 316.64326443 422.8069983 323.82800863 427 331 C431.82451774 339.25217877 436.60993611 347.52586488 441.375 355.8125 C446.51654661 364.74874318 451.72970636 373.63911125 457 382.5 C462.91005432 392.43651159 468.73293582 402.41904601 474.49609375 412.44140625 C478.63759815 419.64326443 482.8069983 426.82800863 487 434 C492.45356101 443.32813657 497.85306432 452.68637134 503.23852539 462.05395508 C507.56109345 469.5538433 511.96152879 477.00371619 516.39523315 484.43807983 C529.48805994 506.41407889 539.97176002 524.44848125 535.30859375 550.92578125 C534.40426795 554.08524586 533.33361853 556.99831316 532 560 C531.39865234 561.38832031 531.39865234 561.38832031 530.78515625 562.8046875 C523.09214812 578.54748095 510.06834419 588.0729239 493.9453125 594.0546875 C489.21273944 595.57363005 484.96616389 596.1248516 479.996768 596.12304783 C478.17917792 596.1260344 478.17917792 596.1260344 476.32486886 596.12908131 C474.98364346 596.12622848 473.64241825 596.12328288 472.30119324 596.12025452 C470.87382164 596.12069062 469.44645012 596.12156624 468.01907903 596.12284368 C464.09682258 596.12508103 460.17459341 596.12107772 456.25234044 596.11606562 C452.02266829 596.11175043 447.7929977 596.11320831 443.56332397 596.1139679 C436.23513105 596.11449245 428.90694702 596.11135277 421.57875633 596.10573006 C410.98339981 596.09760582 400.38804759 596.09499889 389.79268829 596.09374207 C372.60275655 596.091553 355.41282955 596.08489685 338.22290039 596.07543945 C321.52368188 596.06626158 304.82446466 596.05918258 288.12524414 596.05493164 C287.09604428 596.05466892 286.06684443 596.05440619 285.0064567 596.05413551 C279.84330529 596.05283048 274.68015388 596.05156677 269.51700246 596.05032361 C226.67799836 596.03995553 183.83899942 596.02234115 141 596 C142.31070652 592.6644053 143.71354337 589.55160472 145.4765625 586.4296875 C145.97397949 585.54756592 146.47139648 584.66544434 146.98388672 583.7565918 C147.5254541 582.8056665 148.06702148 581.85474121 148.625 580.875 C149.19621582 579.86800049 149.76743164 578.86100098 150.35595703 577.82348633 C155.43122247 568.9168663 160.65249764 560.09945186 165.89697266 551.29174805 C175.80073644 534.64471776 185.3897159 517.81799717 195 501 C267.27 501 339.54 501 414 501 C409.38 493.08 404.76 485.16 400 477 C397.53732363 472.73151792 395.0775393 468.46175719 392.625 464.1875 C387.48423514 455.25081172 382.27028698 446.36087756 377 437.5 C371.08994568 427.56348841 365.26706418 417.58095399 359.50390625 407.55859375 C355.36240185 400.35673557 351.1930017 393.17199137 347 386 C342.17548226 377.74782123 337.39006389 369.47413512 332.625 361.1875 C327.48345339 352.25125682 322.27029364 343.36088875 317 334.5 C311.08994568 324.56348841 305.26706418 314.58095399 299.50390625 304.55859375 C295.36240137 297.35673473 291.19289371 290.17205502 287 283 C281.51149612 273.60916212 276.06737869 264.19343726 270.63842773 254.76806641 C264.13609206 243.48643298 257.57345822 232.24032236 251 221 C243.80782436 232.87279788 236.81137926 244.85699701 229.83056641 256.85498047 C226.89086889 261.90555175 223.94521931 266.95264746 221 272 C219.83330295 273.99998228 218.66663633 275.9999823 217.5 278 C196.5 314 196.5 314 194.75024414 316.99951172 C193.58268272 319.00109211 192.41520236 321.00271977 191.24780273 323.00439453 C188.34548584 327.98060392 185.44180084 332.95600455 182.53515625 337.9296875 C176.53222941 348.20532557 170.55812212 358.49638563 164.625 368.8125 C158.8281074 378.88756713 152.92726707 388.89712756 146.98535156 398.88720703 C141.75357515 407.69627732 136.61403636 416.55568107 131.50610352 425.43701172 C125.6306887 435.65263484 119.69378995 445.83162984 113.74707031 456.00585938 C111.95971858 459.06903457 110.17835645 462.13562557 108.3984375 465.203125 C92.91575431 491.87089678 77.28269772 516.50904523 56 539 C55.36191406 539.680625 54.72382813 540.36125 54.06640625 541.0625 C40.94639217 554.65445704 24.68074004 565.32316512 8 574 C7.33129883 574.34804688 6.66259766 574.69609375 5.97363281 575.0546875 C-9.36547169 582.91256289 -25.40265097 588.24550677 -42.25 591.8125 C-43.17047119 592.00739014 -44.09094238 592.20228027 -45.03930664 592.40307617 C-61.72591362 595.71760924 -78.06185425 596.29915215 -95.0144043 596.29052734 C-97.38825692 596.29652414 -99.76210762 596.3033323 -102.13595581 596.31088257 C-108.53445599 596.32842357 -114.93290257 596.33323263 -121.33142447 596.33451414 C-125.33695444 596.33594204 -129.34247544 596.34009772 -133.34800148 596.34550858 C-146.62366986 596.36307345 -159.89930618 596.37235377 -173.17498627 596.37084763 C-173.88753621 596.37076772 -174.60008615 596.3706878 -175.33422852 596.37060547 C-176.40437879 596.37048283 -176.40437879 596.37048283 -177.49614827 596.37035771 C-189.07044753 596.36954394 -200.64461695 596.38871679 -212.21887865 596.4168822 C-224.14564454 596.44567352 -236.07234718 596.45941939 -247.99914867 596.45769465 C-254.67840555 596.45703339 -261.35754495 596.46280667 -268.0367794 596.48405075 C-274.31525508 596.50347961 -280.59344307 596.50352562 -286.87192917 596.48901749 C-289.16718659 596.48693473 -291.46246227 596.49159823 -293.75768852 596.5037384 C-314.98458477 596.60869197 -331.70753206 593.57297444 -347.75 578.37890625 C-360.87221271 564.50490011 -364.68142178 548.92832904 -364.29296875 530.40234375 C-363.68180185 515.87153884 -356.13958733 504.27139472 -349 492 C-348.58443848 491.28328125 -348.16887695 490.5665625 -347.74072266 489.828125 C-345.74924242 486.40248481 -343.7384124 482.9888037 -341.71484375 479.58203125 C-338.52974896 474.21809876 -335.39049647 468.82762712 -332.25 463.4375 C-331.0468777 461.37369635 -329.84375267 459.30989428 -328.640625 457.24609375 C-327.73666992 455.69510986 -327.73666992 455.69510986 -326.81445312 454.11279297 C-324.45771893 450.06968734 -322.09967551 446.02734631 -319.74145508 441.98510742 C-318.57710817 439.98924739 -317.41288361 437.99331598 -316.2487793 435.99731445 C-313.3461568 431.02052377 -310.44213188 426.04456191 -307.53515625 421.0703125 C-301.53222941 410.79467443 -295.55812212 400.50361437 -289.625 390.1875 C-283.8281074 380.11243287 -277.92726707 370.10287244 -271.98535156 360.11279297 C-266.75274196 351.30231978 -261.61197711 342.44173159 -256.50390625 333.55859375 C-251.79103301 325.36315523 -247.03611366 317.19317247 -242.26464844 309.03173828 C-238.02146824 301.76740426 -233.81868866 294.48049092 -229.625 287.1875 C-223.8281931 277.11238448 -217.92726625 267.10287105 -211.98535156 257.11279297 C-206.75274196 248.30231978 -201.61197711 239.44173159 -196.50390625 230.55859375 C-191.79103301 222.36315523 -187.03611366 214.19317247 -182.26464844 206.03173828 C-178.02146824 198.76740426 -173.81868866 191.48049092 -169.625 184.1875 C-163.8281931 174.11238448 -157.92726625 164.10287105 -151.98535156 154.11279297 C-146.75274196 145.30231978 -141.61197711 136.44173159 -136.50390625 127.55859375 C-131.79103301 119.36315523 -127.03611366 111.19317247 -122.26464844 103.03173828 C-118.02146819 95.76740417 -113.81869906 88.48048501 -109.625 81.1875 C-103.73914218 70.95794058 -97.76131266 60.78668243 -91.71508789 50.65136719 C-88.7094831 45.60665422 -85.72830614 40.55579411 -82.86328125 35.4296875 C-77.99903566 26.73601879 -73.27569979 18.94931326 -66 12 C-65.40316406 11.37222656 -64.80632812 10.74445313 -64.19140625 10.09765625 C-48.11280246 -5.7043264 -20.13471985 -8.71930888 0 0 Z M-24 126 C-30.99168079 137.11720671 -37.56230116 148.47651678 -44.15771484 159.83154297 C-45.93071942 162.88084768 -47.70838547 165.92736974 -49.48828125 168.97265625 C-55.48487585 179.2331184 -61.45000489 189.51051634 -67.375 199.8125 C-73.1718926 209.88756713 -79.07273293 219.89712756 -85.01464844 229.88720703 C-90.24725804 238.69768022 -95.38802289 247.55826841 -100.49609375 256.44140625 C-105.20896699 264.63684477 -109.96388634 272.80682753 -114.73535156 280.96826172 C-118.97853176 288.23259574 -123.18131134 295.51950908 -127.375 302.8125 C-133.1718069 312.88761552 -139.07273375 322.89712895 -145.01464844 332.88720703 C-150.24725804 341.69768022 -155.38802289 350.55826841 -160.49609375 359.44140625 C-165.20896699 367.63684477 -169.96388634 375.80682753 -174.73535156 383.96826172 C-178.97853176 391.23259574 -183.18131134 398.51950908 -187.375 405.8125 C-193.1718069 415.88761552 -199.07273375 425.89712895 -205.01464844 435.88720703 C-210.23801134 444.68211098 -215.37269374 453.52537573 -220.4675293 462.39526367 C-223.61529829 467.87378185 -226.77957966 473.34137294 -229.98046875 478.7890625 C-230.6235498 479.88452393 -231.26663086 480.97998535 -231.92919922 482.10864258 C-233.15320226 484.19090753 -234.37994026 486.27156808 -235.60986328 488.3503418 C-236.15755371 489.28273682 -236.70524414 490.21513184 -237.26953125 491.17578125 C-237.75010986 491.98958252 -238.23068848 492.80338379 -238.72583008 493.6418457 C-240.02190554 496.04054141 -241.00763255 498.46333196 -242 501 C-221.20599175 501.07034986 -200.41200337 501.12311464 -179.61789989 501.15543652 C-169.96096485 501.17084877 -160.30410412 501.19182922 -150.6472168 501.22631836 C-142.22181735 501.25639473 -133.79647178 501.2756159 -125.37102014 501.28226548 C-120.91748236 501.28614713 -116.46409858 501.29514907 -112.01061058 501.31719017 C-81.43837549 501.84019995 -81.43837549 501.84019995 -51.75 495.3125 C-51.02167969 495.05903809 -50.29335938 494.80557617 -49.54296875 494.54443359 C-37.76450936 490.27602233 -27.42777123 484.2879716 -18 476 C-17.24332031 475.37480469 -16.48664063 474.74960937 -15.70703125 474.10546875 C-9.66966394 469.00332185 -4.79702486 463.26483247 0 457 C0.72316406 456.07703125 1.44632813 455.1540625 2.19140625 454.203125 C10.81393487 442.70642018 17.72698615 430.07202059 24.89550781 417.64306641 C27.385364 413.32787358 29.90170114 409.02830609 32.41845703 404.72875977 C37.14418841 396.65310006 41.8348198 388.557795 46.5 380.44702148 C52.31199475 370.34338322 58.17812054 360.27469889 64.125 350.25 C64.78411377 349.13568604 65.44322754 348.02137207 66.12231445 346.87329102 C69.35353197 341.41923865 72.61312396 335.98617061 75.93359375 330.5859375 C76.54638184 329.57885742 77.15916992 328.57177734 77.79052734 327.53417969 C78.94148026 325.64457443 80.10396141 323.7619256 81.27978516 321.88769531 C81.78687012 321.05077148 82.29395508 320.21384766 82.81640625 319.3515625 C83.26443604 318.62791504 83.71246582 317.90426758 84.17407227 317.15869141 C85.26377538 314.31058176 84.91904445 312.88968783 84 310 C82.77080857 307.41034542 82.77080857 307.41034542 81.18359375 304.7734375 C80.59263916 303.75588379 80.00168457 302.73833008 79.39282227 301.68994141 C78.42493774 300.04904541 78.42493774 300.04904541 77.4375 298.375 C76.75978653 297.2143502 76.08263231 296.05337369 75.40600586 294.89208984 C70.0104042 285.64932351 64.53194866 276.45504343 59.05883789 267.25805664 C53.55548905 257.99027589 48.19498227 248.64638539 42.86401367 239.27880859 C36.88975209 228.78334836 30.81507116 218.34852473 24.71337891 207.92675781 C21.82618816 202.99491931 18.94360074 198.0603982 16.0625 193.125 C15.4859668 192.13765869 14.90943359 191.15031738 14.31542969 190.13305664 C10.686217 183.91104484 7.08162747 177.67534207 3.49072266 171.43115234 C-2.20344961 161.53154848 -7.93263528 151.65355472 -13.73883057 141.81924438 C-14.45008183 140.61408772 -15.16034099 139.40834495 -15.86956787 138.20199585 C-16.85394346 136.52866251 -17.84288203 134.85801596 -18.83203125 133.1875 C-19.39639893 132.23230469 -19.9607666 131.27710938 -20.54223633 130.29296875 C-21.93269632 127.92240084 -21.93269632 127.92240084 -24 126 Z " fill="#00DC81" transform="translate(364,154)"/>
</svg>
