<?xml version="1.0" encoding="UTF-8"?>
<svg version="1.1" xmlns="http://www.w3.org/2000/svg" width="538" height="463">
<path d="M0 0 C25.24262587 -0.07001135 50.48523723 -0.12294951 75.72794056 -0.15543652 C87.44797316 -0.17092021 99.16794552 -0.1920384 110.88793945 -0.22631836 C121.1004071 -0.25617476 131.31283113 -0.27556406 141.52534121 -0.28226548 C146.93521598 -0.28618412 152.34496594 -0.29542459 157.7548008 -0.31719017 C162.84284617 -0.33749595 167.93071487 -0.3438458 173.01879692 -0.33932304 C174.88972558 -0.3401509 176.76065993 -0.3461516 178.63155365 -0.35761642 C181.1793375 -0.37246824 183.72644788 -0.36898063 186.27424622 -0.36076355 C187.02035166 -0.36950207 187.76645711 -0.3782406 188.53517181 -0.38724393 C193.53594957 -0.34342979 193.53594957 -0.34342979 195.91015148 1.41364574 C197.09448078 3.13752369 198.22398125 4.8475773 199.26953125 6.66015625 C199.68058105 7.36672363 200.09163086 8.07329102 200.51513672 8.80126953 C201.15733154 9.92057861 201.15733154 9.92057861 201.8125 11.0625 C202.70669409 12.60306033 203.6012239 14.14342585 204.49609375 15.68359375 C205.14167236 16.79903564 205.14167236 16.79903564 205.80029297 17.93701172 C207.29965186 20.51527435 208.83240001 23.07241127 210.375 25.625 C213.12436802 30.19448037 215.81501922 34.78641421 218.33203125 39.48828125 C220.89843543 44.27574235 223.54796575 48.93835767 226.5 53.5 C229.28420303 57.80946207 231.78304069 62.19344967 234.203125 66.71484375 C236.56740008 71.03735537 239.02963929 75.2999411 241.5 79.5625 C241.97767822 80.38741943 242.45535645 81.21233887 242.94750977 82.06225586 C245.91993127 87.18031565 248.9410895 92.26332374 252.07421875 97.28515625 C253 99 253 99 253 101 C253.66 101 254.32 101 255 101 C255.25136719 100.15179688 255.50273437 99.30359375 255.76171875 98.4296875 C257.09129793 94.74713067 258.83429654 91.48369962 260.8125 88.125 C261.17069824 87.50713623 261.52889648 86.88927246 261.89794922 86.25268555 C264.09430841 82.48261568 266.37224181 78.7744562 268.7199707 75.09765625 C270.12810481 72.79006742 271.40433463 70.43433342 272.6796875 68.05078125 C276.11548999 61.72076256 279.7972199 55.5514404 283.5 49.375 C289.69575132 39.00977394 295.68589194 28.55333731 301.48242188 17.95849609 C304.03999898 13.32000917 306.52218738 9.02779229 310 5 C310.37125 4.2575 310.7425 3.515 311.125 2.75 C312 1 312 1 314 0 C316.52936408 -0.09771373 319.03117977 -0.13456364 321.56080627 -0.12698364 C322.34993516 -0.12854363 323.13906405 -0.13010362 323.95210594 -0.13171089 C326.61074882 -0.13571689 329.26933515 -0.13253279 331.92797852 -0.12939453 C333.828105 -0.13074874 335.72823122 -0.13252878 337.62835693 -0.13470459 C342.79963484 -0.1392763 347.97089287 -0.13749051 353.14217114 -0.1343255 C358.54293705 -0.13180093 363.9437012 -0.13413968 369.34446716 -0.13571167 C378.41446235 -0.13753292 387.48444941 -0.13512805 396.55444336 -0.13037109 C407.05634416 -0.12492692 417.55822556 -0.12669244 428.06012589 -0.1321975 C437.0613829 -0.13672793 446.06263405 -0.13737957 455.06389183 -0.13475883 C460.44679358 -0.13319588 465.82968619 -0.13300281 471.21258736 -0.13629532 C476.2710677 -0.13917308 481.32952288 -0.1372001 486.38800049 -0.13140106 C488.2500854 -0.13007302 490.11217242 -0.13046832 491.97425652 -0.13266373 C494.50492588 -0.13537348 497.0355133 -0.1319963 499.56617737 -0.12698364 C500.31285331 -0.12921436 501.05952925 -0.13144509 501.82883173 -0.13374341 C506.88585004 -0.11414996 506.88585004 -0.11414996 508 1 C508.51234204 5.43253493 507.29476852 7.65247356 504.875 11.3125 C504.14110415 12.44961837 503.41096247 13.58916421 502.68359375 14.73046875 C502.26577637 15.3857959 501.84795898 16.04112305 501.41748047 16.71630859 C497.8634938 22.44210799 494.5549137 28.31993219 491.18896484 34.1574707 C488.33061843 39.09016226 485.41306543 43.95486627 482.31640625 48.7421875 C479.98438284 52.36827238 477.933094 55.98050775 476.07324219 59.86425781 C473.66222747 64.66215515 470.84559952 69.24824795 468.125 73.875 C467.22587891 75.41220703 467.22587891 75.41220703 466.30859375 76.98046875 C463.01909145 82.59617008 459.69731457 88.19053256 456.32446289 93.7565918 C454.92847587 96.12114935 453.61246607 98.51898758 452.3125 100.9375 C448.25692481 108.4424046 443.93117862 115.78997519 439.64501953 123.16455078 C436.5861675 128.4369621 433.54423702 133.71914142 430.5 139 C425.57762601 147.5365439 420.64613356 156.06770066 415.7043457 164.59301758 C413.18171938 168.94830906 410.6767176 173.31298889 408.1875 177.6875 C403.8229135 185.34594284 399.37146642 192.95351408 394.92260742 200.56323242 C391.42690831 206.53803812 391.42690831 206.53803812 387.9765625 212.5390625 C385.22481831 217.35733395 382.4232447 222.14612369 379.625 226.9375 C378.71439819 228.49803101 378.71439819 228.49803101 377.78540039 230.09008789 C374.57429183 235.59278094 371.36064925 241.09398337 368.14453125 246.59375 C367.52304199 247.65730713 366.90155273 248.72086426 366.26123047 249.81665039 C365.07747123 251.84235244 363.89294587 253.86760706 362.70751953 255.89233398 C359.77993212 260.9035626 356.90562233 265.93758771 354.10131836 271.01879883 C352.63132797 273.66321735 351.10112795 276.27003278 349.5625 278.875 C347.34667197 282.65382071 345.19560035 286.45235032 343.125 290.3125 C340.82250768 294.57211079 338.38421281 298.7349092 335.875 302.875 C332.2850676 308.80433609 328.80426045 314.78886032 325.375 320.8125 C304.38453946 357.6669704 304.38453946 357.6669704 297.80859375 367.99609375 C296.18980727 370.68474776 294.6836231 373.40006829 293.19140625 376.16015625 C289.59460029 382.80062852 285.73081302 389.26961433 281.85546875 395.75 C278.60178629 401.21680776 275.48087806 406.73428666 272.45556641 412.33056641 C270.18710868 416.49080069 267.81715068 420.59015567 265.4375 424.6875 C264.98181641 425.47705078 264.52613281 426.26660156 264.05664062 427.08007812 C262.71582636 429.3936026 261.35846899 431.69681145 260 434 C259.33315186 435.16909912 259.33315186 435.16909912 258.65283203 436.36181641 C258.22212402 437.0944873 257.79141602 437.8271582 257.34765625 438.58203125 C256.96746338 439.24050049 256.58727051 439.89896973 256.19555664 440.57739258 C255.80102295 441.04685303 255.40648926 441.51631348 255 442 C254.01 442 253.02 442 252 442 C251.58492187 441.2678125 251.16984375 440.535625 250.7421875 439.78125 C245.56696049 430.68670882 240.30384939 421.64505901 235.01318359 412.6171875 C232.02116978 407.50286314 229.07513421 402.37051069 226.21313477 397.18237305 C224.0446078 393.28129385 221.80211581 389.42306625 219.5625 385.5625 C219.08022949 384.72992676 218.59795898 383.89735352 218.10107422 383.03955078 C215.19315036 378.02835608 212.24176862 373.04677865 209.2421875 368.08984375 C208.03550587 366.05973472 206.88521623 364.00829099 205.75 361.9375 C200.66833325 352.69511582 195.21832786 343.64269107 189.75 334.625 C187.8238926 331.43116241 186.00518925 328.19847582 184.23828125 324.9140625 C181.0900938 319.12066388 177.78203194 313.43166329 174.4375 307.75 C169.61189 299.52050224 164.86009593 291.25480387 160.1875 282.9375 C155.94873311 275.39343603 151.62231618 267.92306017 147.09765625 260.546875 C145.37035556 257.68301384 143.76836835 254.76107977 142.17578125 251.8203125 C138.94145338 245.85268539 135.55279271 239.98316939 132.125 234.125 C131.51076172 233.0721582 130.89652344 232.01931641 130.26367188 230.93457031 C127.07953006 225.49261305 123.84972206 220.09144869 120.5 214.75 C117.46760038 209.89816061 114.92450332 204.91424605 112.4296875 199.76953125 C110.69549068 196.41011719 108.6505651 193.37607569 106.5 190.2734375 C104.2693955 186.89267755 102.4110072 183.33193123 100.50390625 179.76171875 C98.63741565 176.33416329 96.63131783 173.00521919 94.58984375 169.6796875 C93.26499493 167.44664993 91.99586371 165.19891362 90.7421875 162.92578125 C87.64998127 157.33360391 84.41817264 151.82547525 81.1875 146.3125 C75.63160468 136.80914609 70.12695049 127.2802131 64.69824219 117.70361328 C58.65991931 107.0568788 52.5542781 96.46402891 46.18457031 86.01123047 C43.17660013 81.05302629 40.35555648 76.02038015 37.59814453 70.91894531 C34.69853253 65.62292314 31.65360462 60.41046668 28.625 55.1875 C27.289806 52.88053108 25.95549277 50.57305398 24.62109375 48.265625 C23.99058105 47.17572266 23.36006836 46.08582031 22.71044922 44.96289062 C20.6893697 41.46191702 18.68563919 37.95160982 16.6875 34.4375 C13.34630621 28.57396079 9.93198285 22.75505362 6.4987793 16.94506836 C5.70962881 15.60897871 4.924105 14.27073901 4.14257812 12.93017578 C3.37571354 11.63469898 2.58746651 10.35166236 1.77929688 9.08154297 C-1.08408025 4.46600497 -1.08408025 4.46600497 -0.60253906 1.79711914 C-0.40370117 1.20406982 -0.20486328 0.61102051 0 0 Z " fill="#5BC399" transform="translate(14,9)"/>
<path d="M0 0 C12.19499657 -0.44137323 24.38807902 -0.77836223 36.58945179 -0.98443127 C42.25644353 -1.08337495 47.91795258 -1.21736113 53.58178711 -1.43334961 C59.05475125 -1.64073865 64.52246867 -1.75356444 69.99905968 -1.80266762 C72.08133326 -1.83762149 74.16333685 -1.90590307 76.2433567 -2.00887108 C89.49663643 -2.6384959 89.49663643 -2.6384959 95 0 C99.83886381 4.63790572 102.49631879 10.68020201 105.04260826 16.78302574 C106.2605111 19.60324983 107.78991589 22.16152976 109.4375 24.75 C112.17127499 29.27513752 114.83675263 33.82701297 117.33203125 38.48828125 C119.89843543 43.27574235 122.54796575 47.93835767 125.5 52.5 C128.28420303 56.80946207 130.78304069 61.19344967 133.203125 65.71484375 C135.56740008 70.03735537 138.02963929 74.2999411 140.5 78.5625 C140.97767822 79.38741943 141.45535645 80.21233887 141.94750977 81.06225586 C144.91993127 86.18031565 147.9410895 91.26332374 151.07421875 96.28515625 C152 98 152 98 152 100 C152.66 100 153.32 100 154 100 C154.25136719 99.15179688 154.50273437 98.30359375 154.76171875 97.4296875 C156.09129793 93.74713067 157.83429654 90.48369962 159.8125 87.125 C160.17069824 86.50713623 160.52889648 85.88927246 160.89794922 85.25268555 C163.09430841 81.48261568 165.37224181 77.7744562 167.7199707 74.09765625 C169.12810481 71.79006742 170.40433463 69.43433342 171.6796875 67.05078125 C175.11548999 60.72076256 178.7972199 54.5514404 182.5 48.375 C188.69575132 38.00977394 194.68589194 27.55333731 200.48242188 16.95849609 C203.04568414 12.30969841 205.56382696 8.07078157 209 4 C209.66 2.68 210.32 1.36 211 0 C242.02 0 273.04 0 305 0 C303.39374675 4.81875976 301.82073269 8.36584957 299.3125 12.6875 C298.9609082 13.2954541 298.60931641 13.9034082 298.24707031 14.52978516 C295.51748008 19.21276139 292.63412527 23.78537399 289.640625 28.3046875 C288.37173036 30.38930013 287.28294973 32.40759892 286.21875 34.59375 C283.51383897 40.10045282 280.36367757 45.3423185 277.25 50.625 C275.99173755 52.77056953 274.73392228 54.91640136 273.4765625 57.0625 C272.87489258 58.08859375 272.27322266 59.1146875 271.65332031 60.171875 C268.05671139 66.32413692 264.53359002 72.5185697 261.02636719 78.72216797 C257.41389669 85.11170317 253.75164934 91.45243281 249.875 97.6875 C246.93574937 102.42232397 244.19205591 107.21491338 241.55859375 112.125 C235.3148345 123.6423103 228.61593963 134.92624576 221.91796875 146.18359375 C216.59734622 155.13541038 211.32635301 164.07256114 206.4609375 173.28125 C204.66163619 176.62968239 202.7202533 179.87362803 200.74609375 183.12109375 C198.39073777 187.00453302 196.06608112 190.90553762 193.75 194.8125 C193.31324951 195.54243164 192.87649902 196.27236328 192.42651367 197.02441406 C190.307942 200.60442504 188.39328779 204.06009174 187 208 C186.34 208 185.68 208 185 208 C184.74605469 208.85207031 184.49210938 209.70414063 184.23046875 210.58203125 C182.91758292 214.22893632 181.2573813 217.33649627 179.3125 220.6875 C178.95945801 221.29762939 178.60641602 221.90775879 178.24267578 222.53637695 C175.50509811 227.2312062 172.59262254 231.80197165 169.64453125 236.3671875 C167.47895696 239.83416392 165.54820229 243.4042762 163.62109375 247.0078125 C161.67550015 250.59895635 159.65655575 254.14448469 157.625 257.6875 C157.26672119 258.31245361 156.90844238 258.93740723 156.53930664 259.58129883 C155.6937382 261.05469718 154.84699988 262.52742406 154 264 C153.01 264 152.02 264 151 264 C150.56429687 263.10539062 150.12859375 262.21078125 149.6796875 261.2890625 C146.58823616 254.99153199 143.42742212 248.81980615 139.7421875 242.84375 C137.380378 238.98859907 135.09914644 235.08756913 132.8125 231.1875 C129.67379719 225.83100923 129.67379719 225.83100923 126.4921875 220.5 C124.38251114 216.96546369 122.34385774 213.39248454 120.3125 209.8125 C119.89677734 209.08869141 119.48105469 208.36488281 119.05273438 207.61914062 C116 202.23048799 116 202.23048799 116 200 C115.34 200 114.68 200 114 200 C113.47792969 198.99324219 112.95585937 197.98648438 112.41796875 196.94921875 C105.65436252 183.99408361 98.44650059 171.31281676 90.875 158.8125 C87.99957984 154.06394899 85.30455122 149.21969236 82.59716797 144.37426758 C79.79618044 139.37682638 76.91882849 134.42941353 74 129.5 C69.5573198 121.99444517 65.25044454 114.41885657 61.01269531 106.79589844 C60.30568003 105.54208831 59.58514736 104.29584689 58.85449219 103.05566406 C56 98.20127305 56 98.20127305 56 96 C55.34 96 54.68 96 54 96 C53.16180842 94.37750059 52.3295884 92.75191503 51.5 91.125 C51.0359375 90.22007813 50.571875 89.31515625 50.09375 88.3828125 C49 86 49 86 49 84 C48.34 84 47.68 84 47 84 C46.46632812 82.97003906 45.93265625 81.94007812 45.3828125 80.87890625 C40.86248859 72.2186259 36.17078756 63.71172484 31.10009766 55.35961914 C28 50.20572218 28 50.20572218 28 48 C27.34 48 26.68 48 26 48 C25.48953125 46.94425781 25.48953125 46.94425781 24.96875 45.8671875 C20.63613988 37.04064668 15.81000077 28.53750347 10.86230469 20.04785156 C9.73820539 18.11714666 8.61905014 16.18363437 7.5 14.25 C7.14953613 13.6533252 6.79907227 13.05665039 6.43798828 12.44189453 C4 8.22546442 4 8.22546442 4 6 C3.34 6 2.68 6 2 6 C1.34 4.02 0.68 2.04 0 0 Z " fill="#546778" transform="translate(115,10)"/>
<path d="M0 0 C33.33 0 66.66 0 101 0 C101 0.33 101 0.66 101 1 C52.49 1.495 52.49 1.495 3 2 C3.59626375 5.84279296 3.59626375 5.84279296 5.4375 7.4375 C7.45153131 9.45153131 8.18601661 11.28672202 9 14 C8.67 14.99 8.34 15.98 8 17 C6.65869239 14.73354942 5.32683766 12.46239903 4 10.1875 C3.42765625 9.22360352 3.42765625 9.22360352 2.84375 8.24023438 C0 3.33984375 0 3.33984375 0 0 Z " fill="#83C9AD" transform="translate(13,10)"/>
<path d="M0 0 C0.66 0 1.32 0 2 0 C2.42937866 0.78528076 2.42937866 0.78528076 2.86743164 1.58642578 C6.78669028 8.70315857 10.93120471 15.67717679 15.09570312 22.65234375 C18.41398164 28.23647635 21.59309176 33.87517011 24.6809082 39.58984375 C26.62552499 43.14291739 28.75502052 46.56894314 30.8984375 50.00390625 C32 52 32 52 32 54 C31.34 54 30.68 54 30 54 C30 53.01 30 52.02 30 51 C29.01 51 28.02 51 27 51 C26.67 49.02 26.34 47.04 26 45 C25.34 45 24.68 45 24 45 C23.32845067 43.71086513 22.66291141 42.41859796 22 41.125 C21.62875 40.40570313 21.2575 39.68640625 20.875 38.9453125 C20 37 20 37 20 35 C19.34 35 18.68 35 18 35 C17.15930585 33.39967863 16.32768495 31.79458829 15.5 30.1875 C15.0359375 29.29417969 14.571875 28.40085938 14.09375 27.48046875 C13 25 13 25 13 22 C12.34 22 11.68 22 11 22 C10.32845067 20.71086513 9.66291141 19.41859796 9 18.125 C8.62875 17.40570313 8.2575 16.68640625 7.875 15.9453125 C7 14 7 14 7 12 C6.34 12 5.68 12 5 12 C3 9 3 9 3 6 C2.34 6 1.68 6 1 6 C1 5.01 1 4.02 1 3 C0.34 2.67 -0.32 2.34 -1 2 C-0.67 1.34 -0.34 0.68 0 0 Z " fill="#64B39B" transform="translate(178,122)"/>
<path d="M0 0 C0.6875 1.6875 0.6875 1.6875 1 4 C-0.25 6.41015625 -0.25 6.41015625 -2 9 C-4.60663994 13.66344177 -7.17313097 18.34626194 -9.5625 23.125 C-13.72312243 31.44624486 -18.34506839 39.53286137 -24.25 46.75 C-26.06497729 49.08354224 -27.04533337 51.21555566 -28 54 C-28.66 54 -29.32 54 -30 54 C-28.22536323 47.25638028 -24.3515652 41.72792248 -20.671875 35.89453125 C-18.07595222 31.77884355 -15.65083707 27.61121516 -13.3125 23.34375 C-11.9463227 20.90414767 -10.51435563 18.51451239 -9.0625 16.125 C-5.86567296 10.8440078 -2.91637802 5.43976892 0 0 Z " fill="#62B29A" transform="translate(418,14)"/>
<path d="M0 0 C0.99 0.33 1.98 0.66 3 1 C0.66995019 5.06438962 -1.66356379 9.12677877 -4 13.1875 C-4.34325317 13.78413452 -4.68650635 14.38076904 -5.04016113 14.9954834 C-9.40116709 22.56921493 -13.80224779 30.10264291 -18.484375 37.484375 C-20.15237999 40.25291937 -21.58911086 43.09322839 -23 46 C-23.33 46 -23.66 46 -24 46 C-24.17942163 42.05272412 -24.09350689 39.4019487 -22 36 C-21.01 36 -20.02 36 -19 36 C-18.8453125 34.3603125 -18.8453125 34.3603125 -18.6875 32.6875 C-17.99561601 28.97648587 -17.72851977 28.27376648 -15 26 C-14.67 25.01 -14.34 24.02 -14 23 C-13.34 23 -12.68 23 -12 23 C-11.87625 22.443125 -11.7525 21.88625 -11.625 21.3125 C-10.46019791 17.00273228 -8.99335963 13.36752958 -6 10 C-5.34 10 -4.68 10 -4 10 C-4 9.01 -4 8.02 -4 7 C-3.34 7 -2.68 7 -2 7 C-1.855625 6.21625 -1.71125 5.4325 -1.5625 4.625 C-1 2 -1 2 0 0 Z " fill="#85CBAF" transform="translate(482,77)"/>
<path d="M0 0 C0.66 0.33 1.32 0.66 2 1 C0.33113364 3.86091376 -1.33790375 6.72172571 -3.0078125 9.58203125 C-4.25589345 11.72334661 -5.5011395 13.86631962 -6.7421875 16.01171875 C-9.17348146 20.20766156 -11.60785718 24.39469741 -14.18359375 28.50390625 C-14.73092163 29.37897827 -14.73092163 29.37897827 -15.28930664 30.27172852 C-16.32065425 31.91348919 -17.3593458 33.55062968 -18.3984375 35.1875 C-19.75179973 37.56413611 -20.55130723 39.33348299 -21 42 C-21.66 42 -22.32 42 -23 42 C-23.66 43.98 -24.32 45.96 -25 48 C-25.33 48 -25.66 48 -26 48 C-26.35222662 43.77328051 -25.6560873 42.22524887 -23 39 C-20.38641473 34.61291043 -17.98152227 30.12196765 -15.5625 25.625 C-14.96050781 24.50609375 -14.35851562 23.3871875 -13.73828125 22.234375 C-12.66993498 20.2465307 -11.60422698 18.25726244 -10.54296875 16.265625 C-10.11628906 15.47671875 -9.68960937 14.6878125 -9.25 13.875 C-8.88390625 13.19179687 -8.5178125 12.50859375 -8.140625 11.8046875 C-6.94529568 9.91344727 -5.58116748 8.57291073 -4 7 C-3.22937976 5.79638912 -2.49851923 4.56625928 -1.8125 3.3125 C-1.214375 2.219375 -0.61625 1.12625 0 0 Z " fill="#487373" transform="translate(323,176)"/>
<path d="M0 0 C0.66 0 1.32 0 2 0 C2 0.66 2 1.32 2 2 C2.99 2.33 3.98 2.66 5 3 C5 4.32 5 5.64 5 7 C5.66 7 6.32 7 7 7 C9 10 9 10 9 14 C9.99 14.33 10.98 14.66 12 15 C12 15.99 12 16.98 12 18 C15.58327753 19.00217064 15.58327753 19.00217064 19 18 C19.495 25.92 19.495 25.92 20 34 C11.77425864 23.71782329 5.78523952 11.79298826 0 0 Z " fill="#85CBAB" transform="translate(116,190)"/>
<path d="M0 0 C1.19234985 2.87689064 1.02291478 3.93988906 -0.109375 6.91015625 C-0.65078125 7.95042969 -1.1921875 8.99070313 -1.75 10.0625 C-2.28109375 11.10535156 -2.8121875 12.14820313 -3.359375 13.22265625 C-5 16 -5 16 -6.5234375 17.515625 C-8.62044682 19.62372961 -9.60583993 22.00854321 -10.875 24.6875 C-16.23522662 35.64736783 -16.23522662 35.64736783 -19 39 C-20.485 39.495 -20.485 39.495 -22 40 C-20.52797913 34.64719685 -18.01438554 30.58091661 -15 26 C-10.98236119 19.86781444 -7.25417114 13.77885965 -4.06640625 7.171875 C-2.84819047 4.69082015 -1.47859968 2.33463107 0 0 Z " fill="#63B29B" transform="translate(329,168)"/>
<path d="M0 0 C0.97099482 2.62168601 1.06599958 3.79692438 0.1875 6.5 C-0.204375 7.325 -0.59625 8.15 -1 9 C-1.4640625 10.0209375 -1.4640625 10.0209375 -1.9375 11.0625 C-3.54654254 13.99663641 -4.96072328 16.48036164 -8 18 C-8.37078247 19.32340819 -8.69830934 20.65915264 -9 22 C-10.83426632 26.23037999 -12.86497179 30.57996923 -16 34 C-16.66 34 -17.32 34 -18 34 C-18 34.66 -18 35.32 -18 36 C-18.66 36 -19.32 36 -20 36 C-15.40251542 26.6934414 -10.33896083 17.74023603 -4.796875 8.97265625 C-3.02871389 6.04750276 -1.48564674 3.07675606 0 0 Z " fill="#63B59A" transform="translate(358,118)"/>
<path d="M0 0 C0.66 0.33 1.32 0.66 2 1 C-0.99033377 6.33880297 -3.99201065 11.67112546 -7 17 C-7.51868652 17.91958496 -8.03737305 18.83916992 -8.57177734 19.78662109 C-10.1899452 22.65155014 -11.81310742 25.51359651 -13.4375 28.375 C-13.95731445 29.29627686 -14.47712891 30.21755371 -15.01269531 31.16674805 C-15.74697754 32.45705933 -15.74697754 32.45705933 -16.49609375 33.7734375 C-16.93107178 34.54091309 -17.3660498 35.30838867 -17.81420898 36.09912109 C-19 38 -19 38 -21 40 C-20.4990372 34.41030979 -18.33714859 30.49165299 -15.5625 25.75 C-15.15451172 25.03070313 -14.74652344 24.31140625 -14.32617188 23.5703125 C-11.30274725 18.30274725 -11.30274725 18.30274725 -9 16 C-8.67 14.989375 -8.34 13.97875 -8 12.9375 C-7 10 -7 10 -5 9 C-3.91296778 7.15261692 -3.91296778 7.15261692 -2.9375 5 C-1.08474576 1.08474576 -1.08474576 1.08474576 0 0 Z " fill="#487373" transform="translate(295,224)"/>
<path d="M0 0 C1 3 1 3 -0.66015625 6.44140625 C-1.45036951 7.82121043 -2.25185243 9.19460121 -3.0625 10.5625 C-3.47862549 11.28268311 -3.89475098 12.00286621 -4.32348633 12.74487305 C-7.02165276 17.39765783 -9.78725759 22.01014064 -12.58203125 26.60546875 C-15.18349365 30.99857191 -17.58793237 35.50089512 -20 40 C-20.58203125 38.1484375 -20.58203125 38.1484375 -21 36 C-20.05988318 34.29883624 -19.05104383 32.63495707 -18 31 C-17.649375 29.9275 -17.29875 28.855 -16.9375 27.75 C-16 25 -16 25 -14 24 C-13.67 23.01 -13.34 22.02 -13 21 C-12.34 21 -11.68 21 -11 21 C-10.731875 20.154375 -10.46375 19.30875 -10.1875 18.4375 C-6.7032967 8.35164835 -6.7032967 8.35164835 -4 7 C-3.34444881 4.47266765 -3.34444881 4.47266765 -3 2 C-2.34 2 -1.68 2 -1 2 C-0.67 1.34 -0.34 0.68 0 0 Z " fill="#487373" transform="translate(387,65)"/>
<path d="M0 0 C0.33 0.99 0.66 1.98 1 3 C-0.3359375 5.609375 -0.3359375 5.609375 -2.375 8.75 C-3.11307797 9.90424603 -3.85000907 11.05922603 -4.5859375 12.21484375 C-4.97749023 12.82440918 -5.36904297 13.43397461 -5.77246094 14.06201172 C-7.91225448 17.44022992 -9.95227574 20.87797894 -12 24.3125 C-12.77074937 25.60031067 -13.54157536 26.88807549 -14.3125 28.17578125 C-14.869375 29.10777344 -15.42625 30.03976563 -16 31 C-16.33 29.68 -16.66 28.36 -17 27 C-16.34 27 -15.68 27 -15 27 C-15 25.68 -15 24.36 -15 23 C-14.34 23 -13.68 23 -13 23 C-13.061875 21.906875 -13.12375 20.81375 -13.1875 19.6875 C-13 16 -13 16 -11.6875 14.0625 C-10 13 -10 13 -7 13 C-6.67 11.35 -6.34 9.7 -6 8 C-5.34 8 -4.68 8 -4 8 C-3.896875 7.236875 -3.79375 6.47375 -3.6875 5.6875 C-2.95635961 2.82940576 -2.23048087 1.84257115 0 0 Z " fill="#8ACCAF" transform="translate(521,12)"/>
<path d="M0 0 C0.33 0 0.66 0 1 0 C1.49664833 5.33896956 0.31994444 6.96285502 -3 11 C-4.42435138 13.29777439 -5.79462093 15.5878381 -7.125 17.9375 C-7.47175781 18.53240234 -7.81851562 19.12730469 -8.17578125 19.74023438 C-10.26187938 23.39690063 -11.80507606 26.96559185 -13 31 C-14.65 31.33 -16.3 31.66 -18 32 C-18 31.34 -18 30.68 -18 30 C-17.34 30 -16.68 30 -16 30 C-15.77054687 29.34644531 -15.54109375 28.69289063 -15.3046875 28.01953125 C-13.57962111 24.02708719 -11.36907859 20.40691306 -9.125 16.6875 C-5.83426946 11.22410613 -2.78822923 5.73856481 0 0 Z " fill="#63B49A" transform="translate(285,244)"/>
<path d="M0 0 C3.45508381 1.1516946 4.10703624 1.98846674 6 5 C6.34227417 6.33106622 6.67751743 7.66400079 7 9 C7.66 9.33 8.32 9.66 9 10 C9.73315529 11.69958727 10.46163497 13.40148837 11.15625 15.1171875 C12.03964229 17.22798763 12.03964229 17.22798763 13.875 19.8125 C17.37724936 25.06587404 20.69346305 30.76882379 22 37 C18.64716598 33.96857055 16.73212431 30.95355204 14.6875 26.9375 C12.40462251 22.56280129 10.02267649 18.37342303 7.3125 14.25 C4.33541374 9.68379337 2.01182208 5.06079468 0 0 Z " fill="#487373" transform="translate(238,223)"/>
<path d="M0 0 C0.99 0.33 1.98 0.66 3 1 C3.72904086 2.64034193 4.38655243 4.31301918 5 6 C5.804375 7.299375 5.804375 7.299375 6.625 8.625 C8 11 8 11 8 14 C8.66 14 9.32 14 10 14 C12.16505016 16.90473695 13.87851174 20.11442035 15.6875 23.25 C16.21150391 24.12269531 16.73550781 24.99539062 17.27539062 25.89453125 C17.76587891 26.73886719 18.25636719 27.58320312 18.76171875 28.453125 C19.4417395 29.61569824 19.4417395 29.61569824 20.13549805 30.80175781 C21.13821578 33.35145295 20.94215542 34.47368628 20 37 C19.34 35.02 18.68 33.04 18 31 C17.34 31 16.68 31 16 31 C15.16180842 29.37750059 14.3295884 27.75191503 13.5 26.125 C13.0359375 25.22007813 12.571875 24.31515625 12.09375 23.3828125 C11 21 11 21 11 19 C10.34 19 9.68 19 9 19 C7.4933028 16.2118978 5.99580196 13.41896042 4.5 10.625 C4.07074219 9.8309375 3.64148438 9.036875 3.19921875 8.21875 C2.79316406 7.45820312 2.38710937 6.69765625 1.96875 5.9140625 C1.40317383 4.8614624 1.40317383 4.8614624 0.82617188 3.78759766 C0 2 0 2 0 0 Z " fill="#487473" transform="translate(153,75)"/>
<path d="M0 0 C0.66 0.33 1.32 0.66 2 1 C-0.98136301 6.41805393 -4.00908858 11.80978615 -7.0625 17.1875 C-7.39056641 17.76902832 -7.71863281 18.35055664 -8.05664062 18.94970703 C-10.22166253 22.75145957 -12.53869292 26.3875248 -15 30 C-15.33 29.34 -15.66 28.68 -16 28 C-15.07421875 26.01171875 -15.07421875 26.01171875 -13.6875 23.6875 C-11.84799437 20.51946252 -10.229384 17.46462763 -9 14 C-8.34 14 -7.68 14 -7 14 C-6.87496094 13.43667969 -6.74992187 12.87335937 -6.62109375 12.29296875 C-5.95875861 9.84774405 -5.07861701 7.63231431 -4.0625 5.3125 C-3.72347656 4.52488281 -3.38445312 3.73726562 -3.03515625 2.92578125 C-2 1 -2 1 0 0 Z " fill="#487273" transform="translate(418,11)"/>
<path d="M0 0 C0.66 0.33 1.32 0.66 2 1 C0.47148778 6.45400952 -2.10917958 10.93471913 -5 15.75 C-5.45117188 16.51699219 -5.90234375 17.28398437 -6.3671875 18.07421875 C-9.72226732 23.72226732 -9.72226732 23.72226732 -12 26 C-12.29162929 21.04230204 -12.12940055 17.97193147 -9 14 C-8.34 14 -7.68 14 -7 14 C-5.26337666 10.77484237 -4.1094072 7.48670834 -3 4 C-2.01 4 -1.02 4 0 4 C0 2.68 0 1.36 0 0 Z " fill="#84CAB1" transform="translate(328,343)"/>
<path d="M0 0 C0.99 0 1.98 0 3 0 C1.45238056 4.24192064 -0.66018706 8.05562161 -2.9375 11.9375 C-5.44081816 16.22425818 -7.82529261 20.53469172 -10 25 C-10.33 25 -10.66 25 -11 25 C-11.25 21.75 -11.25 21.75 -11 18 C-9.0625 15.8125 -9.0625 15.8125 -7 14 C-6.2127322 11.8618034 -6.2127322 11.8618034 -6 10 C-5.34 10 -4.68 10 -4 10 C-3.67 8.68 -3.34 7.36 -3 6 C-2.34 6 -1.68 6 -1 6 C-1.020625 5.195625 -1.04125 4.39125 -1.0625 3.5625 C-1 1 -1 1 0 0 Z " fill="#84C8AA" transform="translate(501,43)"/>
<path d="M0 0 C2.4375 0.625 2.4375 0.625 5 2 C5.37366113 3.99285937 5.70740515 5.99363529 6 8 C7.32467746 8.6837045 8.65863633 9.34964186 10 10 C11.66783878 13.75263725 12.24045528 16.91226018 12 21 C8.74951058 17.15651589 6.21217131 13.17601471 3.75 8.8125 C3.38648438 8.18408203 3.02296875 7.55566406 2.6484375 6.90820312 C0 2.25352444 0 2.25352444 0 0 Z " fill="#8DCDB5" transform="translate(58,89)"/>
<path d="M0 0 C0.99 0.33 1.98 0.66 3 1 C1.44118037 3.83537265 -0.12274279 6.66790043 -1.6875 9.5 C-2.34008789 10.68722656 -2.34008789 10.68722656 -3.00585938 11.8984375 C-5.84893545 17.03703426 -8.83247039 22.0547317 -12 27 C-13 24 -13 24 -11.99609375 21.65234375 C-11.48175781 20.75644531 -10.96742188 19.86054688 -10.4375 18.9375 C-9.60992187 17.48150391 -9.60992187 17.48150391 -8.765625 15.99609375 C-6.61134227 12.34048567 -4.43123032 8.70246161 -2.19921875 5.09375 C-0.86522163 2.92416581 -0.86522163 2.92416581 0 0 Z " fill="#4A7273" transform="translate(349,129)"/>
<path d="M0 0 C0.75 1.5625 0.75 1.5625 1 4 C0.1606646 5.64509739 -0.70003572 7.28352232 -1.67578125 8.8515625 C-3.30448252 11.4939982 -4.77281523 14.20769061 -6.25 16.9375 C-6.77078125 17.89527344 -7.2915625 18.85304688 -7.828125 19.83984375 C-8.40820312 20.90912109 -8.40820312 20.90912109 -9 22 C-9.99 22 -10.98 22 -12 22 C-9.88109746 17.73414975 -7.6611458 13.52442941 -5.4375 9.3125 C-4.8197168 8.1359082 -4.8197168 8.1359082 -4.18945312 6.93554688 C-3.79564453 6.18982422 -3.40183594 5.44410156 -2.99609375 4.67578125 C-2.63700928 3.99427002 -2.2779248 3.31275879 -1.90795898 2.6105957 C-1 1 -1 1 0 0 Z " fill="#64B399" transform="translate(387,68)"/>
<path d="M0 0 C1.5 1.3125 1.5 1.3125 3 3 C3 3.99 3 4.98 3 6 C3.66 6 4.32 6 5 6 C5.67408308 7.26691507 6.33900497 8.53870749 7 9.8125 C7.556875 10.87404297 7.556875 10.87404297 8.125 11.95703125 C9 14 9 14 9 17 C9.66 17 10.32 17 11 17 C11.86627399 18.59766103 12.71766465 20.20339944 13.5625 21.8125 C14.03816406 22.70582031 14.51382813 23.59914062 15.00390625 24.51953125 C16 27 16 27 15 30 C14.50693359 29.08734375 14.50693359 29.08734375 14.00390625 28.15625 C11.57678984 23.68351515 9.13708121 19.22260455 6.59765625 14.8125 C6.18894287 14.09900391 5.78022949 13.38550781 5.35913086 12.65039062 C4.54360079 11.22938394 3.72288252 9.81134085 2.89672852 8.39648438 C0 3.33450563 0 3.33450563 0 0 Z " fill="#477472" transform="translate(190,138)"/>
<path d="M0 0 C0.99 0.33 1.98 0.66 3 1 C1.73513885 3.27434653 0.46345297 5.54438745 -0.8125 7.8125 C-1.16892578 8.45509766 -1.52535156 9.09769531 -1.89257812 9.75976562 C-3.6465286 12.86538435 -5.25964807 15.67459095 -8 18 C-8.6875 15.75 -8.6875 15.75 -9 13 C-7.6875 10.6875 -7.6875 10.6875 -6 9 C-5.34 9 -4.68 9 -4 9 C-4 7.35 -4 5.7 -4 4 C-2.68 4 -1.36 4 0 4 C0 2.68 0 1.36 0 0 Z " fill="#87CCAF" transform="translate(367,276)"/>
<path d="M0 0 C1.32 0.66 2.64 1.32 4 2 C-1.94 11.9 -1.94 11.9 -8 22 C-8.33 20.68 -8.66 19.36 -9 18 C-8.34 18 -7.68 18 -7 18 C-7 16.68 -7 15.36 -7 14 C-6.34 14 -5.68 14 -5 14 C-5 12.35 -5 10.7 -5 9 C-4.34 9 -3.68 9 -3 9 C-2.01 6.03 -1.02 3.06 0 0 Z " fill="#87CAB2" transform="translate(413,194)"/>
<path d="M0 0 C0.99 0 1.98 0 3 0 C1.3003494 4.73474097 -1.13659027 8.96167111 -3.625 13.3125 C-4.04523438 14.05306641 -4.46546875 14.79363281 -4.8984375 15.55664062 C-5.92948495 17.37269011 -6.96436046 19.18656533 -8 21 C-8.33 21 -8.66 21 -9 21 C-9 19.35 -9 17.7 -9 16 C-8.34 16 -7.68 16 -7 16 C-7 15.01 -7 14.02 -7 13 C-6.34 13 -5.68 13 -5 13 C-5.37125 12.13375 -5.37125 12.13375 -5.75 11.25 C-5.8325 10.5075 -5.915 9.765 -6 9 C-4.71182656 7.62298702 -3.37195574 6.29355827 -2 5 C-0.74563813 2.36777038 -0.74563813 2.36777038 0 0 Z " fill="#85CAB1" transform="translate(441,147)"/>
<path d="M0 0 C0.66 0 1.32 0 2 0 C2.33 1.32 2.66 2.64 3 4 C3.66 4 4.32 4 5 4 C7.39542583 8.58154261 9.50829734 13.0276578 11 18 C11.66 18 12.32 18 13 18 C14.0625 19.8125 14.0625 19.8125 15 22 C14.67 22.99 14.34 23.98 14 25 C2.43863179 7.31589537 2.43863179 7.31589537 0 0 Z " fill="#477274" transform="translate(174,112)"/>
<path d="M0 0 C3 1 3 1 4.16796875 3.06640625 C4.50441406 3.89011719 4.84085937 4.71382813 5.1875 5.5625 C5.53167969 6.38878906 5.87585938 7.21507812 6.23046875 8.06640625 C6.48441406 8.70449219 6.73835938 9.34257812 7 10 C9.87420123 7.28395285 9.87420123 7.28395285 12 4 C12.66 4.33 13.32 4.66 14 5 C12.35 7.97 10.7 10.94 9 14 C8.01 14 7.02 14 6 14 C4.99515796 12.04414675 3.99626195 10.08523763 3 8.125 C2.1646875 6.48917969 2.1646875 6.48917969 1.3125 4.8203125 C0 2 0 2 0 0 Z " fill="#477573" transform="translate(260,260)"/>
<path d="M0 0 C1.32 0.33 2.64 0.66 4 1 C4 1.66 4 2.32 4 3 C4.66 3 5.32 3 6 3 C6.12375 4.134375 6.2475 5.26875 6.375 6.4375 C6.684375 8.2009375 6.684375 8.2009375 7 10 C7.66 10.33 8.32 10.66 9 11 C9 12.65 9 14.3 9 16 C6.38284162 13.61076232 4.63800887 11.02899249 2.8125 8 C2.28269531 7.13375 1.75289062 6.2675 1.20703125 5.375 C0 3 0 3 0 0 Z " fill="#7ECBAB" transform="translate(30,40)"/>
<path d="M0 0 C2 0 2 0 3.5625 1.1875 C5 3 5 3 5.4375 5.25 C6.42650767 10.08514861 9.28182559 13.92273838 12 18 C11.67 18.99 11.34 19.98 11 21 C9.99466333 19.37829621 8.99588093 17.75252763 8 16.125 C7.443125 15.22007812 6.88625 14.31515625 6.3125 13.3828125 C5 11 5 11 5 9 C4.34 9 3.68 9 3 9 C0 3.375 0 3.375 0 0 Z " fill="#487473" transform="translate(226,201)"/>
<path d="M0 0 C0.33 5.28 0.66 10.56 1 16 C-4.26315789 9.42105263 -4.26315789 9.42105263 -5 5 C-1.84782609 0 -1.84782609 0 0 0 Z " fill="#5FC29B" transform="translate(135,208)"/>
<path d="M0 0 C1.32 0.33 2.64 0.66 4 1 C4.33 3.31 4.66 5.62 5 8 C5.99 8.33 6.98 8.66 8 9 C8.33 9.66 8.66 10.32 9 11 C9.99 11.66 10.98 12.32 12 13 C11.01 14.32 10.02 15.64 9 17 C7.68085608 14.92062051 6.36961787 12.83691981 5.0625 10.75 C4.68931641 10.16347656 4.31613281 9.57695312 3.93164062 8.97265625 C2.1034339 6.04093735 0.53724618 3.44519771 0 0 Z " fill="#7DCEAE" transform="translate(106,172)"/>
<path d="M0 0 C0.99 0 1.98 0 3 0 C1.44584521 5.9057882 -1.59534467 10.97738893 -5 16 C-5.33 16 -5.66 16 -6 16 C-6 13.36 -6 10.72 -6 8 C-5.01 8 -4.02 8 -3 8 C-1.92474806 5.34771188 -0.90543849 2.71631546 0 0 Z " fill="#87CBAF" transform="translate(450,131)"/>
<path d="M0 0 C0.61875 0.86625 0.61875 0.86625 1.25 1.75 C2.9056235 4.06154989 2.9056235 4.06154989 5.125 5.6875 C7.91183283 9.12459383 7.81561649 12.68542575 8 17 C4.04568831 12.60632035 1.13368892 7.50472257 -1 2 C-0.67 1.34 -0.34 0.68 0 0 Z " fill="#86CBB0" transform="translate(159,261)"/>
<path d="M0 0 C0.99 0 1.98 0 3 0 C6.10172975 3.1929571 7.40757537 5.61605776 8 10 C8.33 10.66 8.66 11.32 9 12 C8.34 12.66 7.68 13.32 7 14 C5.82807953 12.04480616 4.6626071 10.0857461 3.5 8.125 C2.8503125 7.03445312 2.200625 5.94390625 1.53125 4.8203125 C0 2 0 2 0 0 Z " fill="#7FC9AD" transform="translate(136,224)"/>
<path d="M0 0 C1.5 1.375 1.5 1.375 3 3 C3 3.66 3 4.32 3 5 C3.66 5 4.32 5 5 5 C5.82113177 6.39077301 6.63152495 7.78788893 7.4375 9.1875 C7.88996094 9.96480469 8.34242188 10.74210937 8.80859375 11.54296875 C10.02391499 14.04931977 10.57626575 16.25790365 11 19 C10.34 19 9.68 19 9 19 C7.67865029 16.77567782 6.36788794 14.54616381 5.0625 12.3125 C4.50272461 11.37374023 4.50272461 11.37374023 3.93164062 10.41601562 C1.92058789 6.95555551 0.48724335 4.04489324 0 0 Z " fill="#63B59D" transform="translate(166,101)"/>
<path d="M0 0 C1.875 0.25 1.875 0.25 4 1 C5.72101535 3.58152302 6 4.84918025 6 8 C6.66 8.33 7.32 8.66 8 9 C8 9.66 8 10.32 8 11 C8.66 11.33 9.32 11.66 10 12 C10.625 15.0625 10.625 15.0625 11 18 C7.73171993 15.21629142 5.87542089 11.56811335 3.8125 7.875 C3.44447266 7.22917969 3.07644531 6.58335937 2.69726562 5.91796875 C0 1.14395872 0 1.14395872 0 0 Z " fill="#94D2B9" transform="translate(188,315)"/>
<path d="M0 0 C0.93045933 2.55144824 1.08564091 3.74006478 0.22265625 6.359375 C-0.16019531 7.14828125 -0.54304688 7.9371875 -0.9375 8.75 C-1.31777344 9.54921875 -1.69804687 10.3484375 -2.08984375 11.171875 C-2.39019531 11.77515625 -2.69054687 12.3784375 -3 13 C-3.66 13 -4.32 13 -5 13 C-5.66 14.65 -6.32 16.3 -7 18 C-8 15 -8 15 -6.85546875 12.44140625 C-6.30503906 11.49136719 -5.75460937 10.54132813 -5.1875 9.5625 C-4.64480469 8.61503906 -4.10210937 7.66757813 -3.54296875 6.69140625 C-3.03378906 5.80324219 -2.52460938 4.91507812 -2 4 C-1.32187186 2.67245925 -0.65012471 1.34147683 0 0 Z " fill="#65B59C" transform="translate(374,90)"/>
<path d="M0 0 C0.66 0 1.32 0 2 0 C1.30150228 3.9745504 -0.62892769 7.26574098 -2.5625 10.75 C-3.0565332 11.65298828 -3.0565332 11.65298828 -3.56054688 12.57421875 C-4.3696465 14.05170503 -5.18427662 15.52616036 -6 17 C-6.33 17 -6.66 17 -7 17 C-7 15.35 -7 13.7 -7 12 C-6.01 11.67 -5.02 11.34 -4 11 C-3.7834375 9.8553125 -3.7834375 9.8553125 -3.5625 8.6875 C-3 6 -3 6 -2 3 C-1.34 3 -0.68 3 0 3 C0 2.01 0 1.02 0 0 Z " fill="#86CFB3" transform="translate(276,433)"/>
<path d="M0 0 C0.99 0.33 1.98 0.66 3 1 C0.03 6.28 -2.94 11.56 -6 17 C-6.33 17 -6.66 17 -7 17 C-7 15.35 -7 13.7 -7 12 C-6.34 12 -5.68 12 -5 12 C-4.9175 11.319375 -4.835 10.63875 -4.75 9.9375 C-3.77667472 6.1253093 -2.04192545 3.35929671 0 0 Z " fill="#8DCFB5" transform="translate(286,416)"/>
<path d="M0 0 C0 3.93974955 -1.47789475 5.82936093 -3.5 9.1875 C-4.47453125 10.81751953 -4.47453125 10.81751953 -5.46875 12.48046875 C-6.22671875 13.72763672 -6.22671875 13.72763672 -7 15 C-8.1171875 11.28125 -8.1171875 11.28125 -7.0625 8.75 C-6.711875 8.1725 -6.36125 7.595 -6 7 C-5.34 7 -4.68 7 -4 7 C-4 5.35 -4 3.7 -4 2 C-2.68 1.34 -1.36 0.68 0 0 Z " fill="#86CCB0" transform="translate(301,393)"/>
<path d="M0 0 C0.66 0 1.32 0 2 0 C2 0.66 2 1.32 2 2 C2.66 2 3.32 2 4 2 C4.33 3.65 4.66 5.3 5 7 C5.99 7.33 6.98 7.66 8 8 C9.23867161 10.61497339 10.08503983 13.25511949 11 16 C10.67 16.66 10.34 17.32 10 18 C8.32982236 15.18957076 6.66445191 12.37632343 5 9.5625 C4.28457031 8.35883789 4.28457031 8.35883789 3.5546875 7.13085938 C2.87792969 5.98520508 2.87792969 5.98520508 2.1875 4.81640625 C1.76855469 4.10943604 1.34960938 3.40246582 0.91796875 2.67407227 C0 1 0 1 0 0 Z " fill="#A0D8C3" transform="translate(173,289)"/>
<path d="M0 0 C0.99 0 1.98 0 3 0 C1.56032356 5.23518706 -0.81696611 9.63026009 -4 14 C-4.33 14 -4.66 14 -5 14 C-5.20140476 10.37471432 -4.85776765 8.13498292 -3 5 C-2.34 5 -1.68 5 -1 5 C-0.67 3.35 -0.34 1.7 0 0 Z " fill="#7EC1A7" transform="translate(427,171)"/>
<path d="M0 0 C4.3066536 2.1533268 6.4121749 8.63348096 8 13 C6.35 13 4.7 13 3 13 C2.87625 12.278125 2.7525 11.55625 2.625 10.8125 C2.07777503 7.9843652 2.07777503 7.9843652 0.9375 5.375 C0 3 0 3 0 0 Z " fill="#63B79C" transform="translate(239,227)"/>
<path d="M0 0 C0.99 0.33 1.98 0.66 3 1 C3.33333333 2.33333333 3.66666667 3.66666667 4 5 C4.99 5.33 5.98 5.66 7 6 C7.66 9.3 8.32 12.6 9 16 C6.17547052 13.17547052 4.6862903 10.91210869 2.8125 7.4375 C2.28269531 6.46683594 1.75289062 5.49617187 1.20703125 4.49609375 C0 2 0 2 0 0 Z " fill="#95CFB7" transform="translate(149,246)"/>
<path d="M0 0 C3.915141 3.35583515 6.0795774 7.28066362 8 12 C8 12.66 8 13.32 8 14 C5 13 5 13 3.8125 11.1875 C3 9 3 9 3 5 C2.01 5.33 1.02 5.66 0 6 C0 4.02 0 2.04 0 0 Z " fill="#61B099" transform="translate(248,242)"/>
<path d="M0 0 C0.66 0 1.32 0 2 0 C2.25394531 0.51949219 2.50789062 1.03898438 2.76953125 1.57421875 C4.34096909 4.75829318 5.88623785 7.82347253 7.8125 10.8125 C8.204375 11.534375 8.59625 12.25625 9 13 C8.67 13.99 8.34 14.98 8 16 C7.59007812 15.31292969 7.18015625 14.62585938 6.7578125 13.91796875 C6.21898437 13.01691406 5.68015625 12.11585938 5.125 11.1875 C4.32449219 9.84751953 4.32449219 9.84751953 3.5078125 8.48046875 C2.38116908 6.62705276 1.20313389 4.80470083 0 3 C0 2.01 0 1.02 0 0 Z " fill="#497372" transform="translate(207,168)"/>
<path d="M0 0 C0.66 0 1.32 0 2 0 C2 0.66 2 1.32 2 2 C2.99 2 3.98 2 5 2 C5 2.66 5 3.32 5 4 C5.66 4 6.32 4 7 4 C7.66 6.31 8.32 8.62 9 11 C8.01 11 7.02 11 6 11 C4.02 7.37 2.04 3.74 0 0 Z " fill="#88CEB2" transform="translate(78,125)"/>
<path d="M0 0 C4.04191465 4.49101628 6.43674441 9.58984989 9 15 C8.01 15 7.02 15 6 15 C4.98965502 13.25595212 3.99207578 11.50450439 3 9.75 C2.1646875 8.28820312 2.1646875 8.28820312 1.3125 6.796875 C0 4 0 4 0 0 Z " fill="#64AF9A" transform="translate(150,72)"/>
<path d="M0 0 C0.99 0.33 1.98 0.66 3 1 C0.36 5.62 -2.28 10.24 -5 15 C-5.33 15 -5.66 15 -6 15 C-6 13.35 -6 11.7 -6 10 C-5.34 10 -4.68 10 -4 10 C-4 9.01 -4 8.02 -4 7 C-3.34 7 -2.68 7 -2 7 C-1.855625 6.21625 -1.71125 5.4325 -1.5625 4.625 C-1 2 -1 2 0 0 Z " fill="#97D0B8" transform="translate(482,77)"/>
<path d="M0 0 C0.66 0 1.32 0 2 0 C2 0.66 2 1.32 2 2 C2.66 2 3.32 2 4 2 C4 2.99 4 3.98 4 5 C4.66 5 5.32 5 6 5 C6 5.99 6 6.98 6 8 C6.66 8 7.32 8 8 8 C8.33 9.32 8.66 10.64 9 12 C8.01 12 7.02 12 6 12 C4.02 8.04 2.04 4.08 0 0 Z " fill="#85CCB1" transform="translate(22,27)"/>
<path d="M0 0 C0.33 0.66 0.66 1.32 1 2 C1.66 2 2.32 2 3 2 C3.103125 2.598125 3.20625 3.19625 3.3125 3.8125 C3.83135614 6.05300235 3.83135614 6.05300235 5.4375 7.4375 C7.45153131 9.45153131 8.18601661 11.28672202 9 14 C8.67 14.99 8.34 15.98 8 17 C6.65869239 14.73354942 5.32683766 12.46239903 4 10.1875 C3.42765625 9.22360352 3.42765625 9.22360352 2.84375 8.24023438 C0 3.33984375 0 3.33984375 0 0 Z " fill="#9AD4BB" transform="translate(13,10)"/>
<path d="M0 0 C1 3 1 3 -0.109375 5.62890625 C-0.65078125 6.59699219 -1.1921875 7.56507812 -1.75 8.5625 C-2.54664063 10.01849609 -2.54664063 10.01849609 -3.359375 11.50390625 C-5 14 -5 14 -8 16 C-7.34772505 12.47771528 -5.89597554 10.0195166 -4 7 C-3.26569217 5.73213037 -2.53665702 4.46119462 -1.8125 3.1875 C-1.214375 2.135625 -0.61625 1.08375 0 0 Z " fill="#477272" transform="translate(397,47)"/>
<path d="M0 0 C2.64 0 5.28 0 8 0 C6.68 0.33 5.36 0.66 4 1 C4.66 4.3 5.32 7.6 6 11 C3 7 3 7 3 5 C2.34 5 1.68 5 1 5 C0.67 3.35 0.34 1.7 0 0 Z " fill="#4B7073" transform="translate(116,11)"/>
<path d="M0 0 C0.33 0.99 0.66 1.98 1 3 C-0.43359375 5.69921875 -0.43359375 5.69921875 -2.4375 8.6875 C-3.42556641 10.17830078 -3.42556641 10.17830078 -4.43359375 11.69921875 C-5.20896484 12.83810547 -5.20896484 12.83810547 -6 14 C-7 11 -7 11 -6.07421875 8.80859375 C-5.61660156 8.02613281 -5.15898437 7.24367188 -4.6875 6.4375 C-4.23761719 5.65246094 -3.78773438 4.86742188 -3.32421875 4.05859375 C-2 2 -2 2 0 0 Z " fill="#4A7474" transform="translate(359,114)"/>
<path d="M0 0 C3 3.75 3 3.75 3 6 C3.66 6 4.32 6 5 6 C6.125 8.8125 6.125 8.8125 7 12 C6.01 13.485 6.01 13.485 5 15 C4.34865075 13.43979133 3.70417036 11.87671421 3.0625 10.3125 C2.70285156 9.44238281 2.34320313 8.57226562 1.97265625 7.67578125 C1.0429688 5.11820735 0.45837375 2.6778677 0 0 Z " fill="#64B49B" transform="translate(159,88)"/>
<path d="M0 0 C2.4375 0.8125 2.4375 0.8125 5 2 C6 5 6 5 5 8 C5.66 8.33 6.32 8.66 7 9 C6.01 9 5.02 9 4 9 C0 2.25 0 2.25 0 0 Z " fill="#8FD2B7" transform="translate(204,342)"/>
<path d="M0 0 C3.08089673 2.77280706 4.68775452 5.06326356 6 9 C5.34 9 4.68 9 4 9 C4 8.34 4 7.68 4 7 C2.68 7.33 1.36 7.66 0 8 C0 5.36 0 2.72 0 0 Z " fill="#61BA9C" transform="translate(130,39)"/>
<path d="M0 0 C0.33 0.66 0.66 1.32 1 2 C0.22265625 4.1640625 0.22265625 4.1640625 -0.9375 6.625 C-1.31777344 7.44226563 -1.69804687 8.25953125 -2.08984375 9.1015625 C-2.39019531 9.72804687 -2.69054687 10.35453125 -3 11 C-3.99 11 -4.98 11 -6 11 C-4.54955729 6.89041233 -2.48889248 3.56741255 0 0 Z " fill="#63B19A" transform="translate(336,157)"/>
<path d="M0 0 C0.99 0 1.98 0 3 0 C1.55049545 3.7910119 -0.15172566 7.3874638 -2 11 C-2.33 11 -2.66 11 -3 11 C-3 9.35 -3 7.7 -3 6 C-2.34 6 -1.68 6 -1 6 C-1.0309375 4.7934375 -1.0309375 4.7934375 -1.0625 3.5625 C-1 1 -1 1 0 0 Z " fill="#8ACEB6" transform="translate(501,43)"/>
<path d="M0 0 C0.66 0.33 1.32 0.66 2 1 C1.35499066 4.48305042 -0.04134776 7.06202164 -2 10 C-2.33 10 -2.66 10 -3 10 C-3.36923077 4.58461538 -3.36923077 4.58461538 -1.5 1.625 C-1.005 1.08875 -0.51 0.5525 0 0 Z " fill="#8BCAB0" transform="translate(307,379)"/>
<path d="M0 0 C1.28222189 3.03070628 0.98589446 4.03596914 -0.25 7.1875 C-2 10 -2 10 -5 11 C-3.55049545 7.2089881 -1.84827434 3.6125362 0 0 Z " fill="#63B19B" transform="translate(300,218)"/>
<path d="M0 0 C3.83520308 3.28731693 6.32465344 7.25147171 8 12 C7.67 12.66 7.34 13.32 7 14 C5.82508418 12.23462904 4.66031316 10.46250287 3.5 8.6875 C2.8503125 7.70136719 2.200625 6.71523438 1.53125 5.69921875 C0 3 0 3 0 0 Z " fill="#497370" transform="translate(133,40)"/>
<path d="M0 0 C2 3.75 2 3.75 2 6 C2.99 6.33 3.98 6.66 5 7 C5.33 7.99 5.66 8.98 6 10 C5.34 10.66 4.68 11.32 4 12 C3.13353333 10.56988027 2.28218171 9.13059381 1.4375 7.6875 C0.72400391 6.48673828 0.72400391 6.48673828 -0.00390625 5.26171875 C-1 3 -1 3 0 0 Z " fill="#91D3BF" transform="translate(244,408)"/>
<path d="M0 0 C0.99 0 1.98 0 3 0 C6.125 6.625 6.125 6.625 5 10 C4.1641146 8.52227402 3.33135744 7.04277811 2.5 5.5625 C2.0359375 4.73878906 1.571875 3.91507813 1.09375 3.06640625 C0 1 0 1 0 0 Z " fill="#90CFB7" transform="translate(130,214)"/>
<path d="M0 0 C0.33 0 0.66 0 1 0 C1 1.65 1 3.3 1 5 C-0.98 5.99 -0.98 5.99 -3 7 C-3 7.99 -3 8.98 -3 10 C-3.66 10 -4.32 10 -5 10 C-3.66654496 6.40992874 -2.1056769 3.20429093 0 0 Z " fill="#8F99A4" transform="translate(275,98)"/>
<path d="M0 0 C3.63 0 7.26 0 11 0 C10.34 1.32 9.68 2.64 9 4 C8.34 4 7.68 4 7 4 C7 3.01 7 2.02 7 1 C4.69 1.33 2.38 1.66 0 2 C0 1.34 0 0.68 0 0 Z " fill="#67BB9A" transform="translate(511,11)"/>
<path d="M0 0 C0.66 0 1.32 0 2 0 C0.43358249 4.30764815 -1.68336156 8.06171464 -4 12 C-5 9 -5 9 -4.00390625 6.73828125 C-3.52824219 5.93777344 -3.05257813 5.13726562 -2.5625 4.3125 C-2.08941406 3.50425781 -1.61632812 2.69601563 -1.12890625 1.86328125 C-0.75636719 1.24839844 -0.38382812 0.63351563 0 0 Z " fill="#497274" transform="translate(334,156)"/>
<path d="M0 0 C0.99 0.99 1.98 1.98 3 3 C2.67 3.99 2.34 4.98 2 6 C-1.0625 7.1875 -1.0625 7.1875 -4 8 C-2.87548273 5.0280615 -1.77706209 2.66559313 0 0 Z " fill="#909DA5" transform="translate(291,70)"/>
<path d="M0 0 C0.99 0 1.98 0 3 0 C1.8141763 3.37503669 0.72426311 5.64722731 -2 8 C-1.125 1.125 -1.125 1.125 0 0 Z " fill="#8ACBB4" transform="translate(381,251)"/>
<path d="M0 0 C0.99 0.33 1.98 0.66 3 1 C1.68 3.31 0.36 5.62 -1 8 C-1.33 8 -1.66 8 -2 8 C-2.125 5.125 -2.125 5.125 -2 2 C-1.34 1.34 -0.68 0.68 0 0 Z " fill="#8FCFB7" transform="translate(397,224)"/>
<path d="M0 0 C0.66 0 1.32 0 2 0 C2 0.66 2 1.32 2 2 C2.99 2.33 3.98 2.66 5 3 C5 4.32 5 5.64 5 7 C5.66 7.33 6.32 7.66 7 8 C6.34 8.66 5.68 9.32 5 10 C3.35 6.7 1.7 3.4 0 0 Z " fill="#96D1BB" transform="translate(116,190)"/>
<path d="M0 0 C1.32 0.33 2.64 0.66 4 1 C4.33 3.64 4.66 6.28 5 9 C0.57142857 3.85714286 0.57142857 3.85714286 0 0 Z " fill="#90D0B9" transform="translate(106,172)"/>
<path d="M0 0 C1.9375 0.5625 1.9375 0.5625 4 2 C4.75 5.625 4.75 5.625 5 9 C0.57142857 3.85714286 0.57142857 3.85714286 0 0 Z " fill="#A0D4C0" transform="translate(99,160)"/>
<path d="M0 0 C1 3 1 3 0.00390625 5.04296875 C-0.47175781 5.75066406 -0.94742188 6.45835938 -1.4375 7.1875 C-1.91058594 7.90292969 -2.38367188 8.61835938 -2.87109375 9.35546875 C-3.24363281 9.89816406 -3.61617187 10.44085938 -4 11 C-4.66 10.01 -5.32 9.02 -6 8 C-5.34 8 -4.68 8 -4 8 C-3.896875 7.236875 -3.79375 6.47375 -3.6875 5.6875 C-2.95635961 2.82940576 -2.23048087 1.84257115 0 0 Z " fill="#A7D7C4" transform="translate(521,12)"/>
<path d="M0 0 C0.66 0 1.32 0 2 0 C2 0.66 2 1.32 2 2 C2.99 2.33 3.98 2.66 5 3 C5.33 5.31 5.66 7.62 6 10 C3.25722422 6.80009492 1.3697164 3.99500618 0 0 Z " fill="#99D4BD" transform="translate(250,422)"/>
<path d="M0 0 C0.66 1.32 1.32 2.64 2 4 C0.35 5.32 -1.3 6.64 -3 8 C-3 4.42424104 -1.91159393 2.94704065 0 0 Z " fill="#62AD97" transform="translate(306,208)"/>
<path d="M0 0 C0.99 0 1.98 0 3 0 C3.36923077 4.55384615 3.36923077 4.55384615 1.5 6.8125 C1.005 7.204375 0.51 7.59625 0 8 C0 5.36 0 2.72 0 0 Z " fill="#81C4A7" transform="translate(444,139)"/>
<path d="M0 0 C0.33 0 0.66 0 1 0 C1.3125 2.3125 1.3125 2.3125 1 5 C-1.5 6.8125 -1.5 6.8125 -4 8 C-2.87548273 5.0280615 -1.77706209 2.66559313 0 0 Z " fill="#62AE97" transform="translate(364,108)"/>
<path d="M0 0 C1.98 0.495 1.98 0.495 4 1 C2.68 3.31 1.36 5.62 0 8 C-0.98120464 4.94736336 -0.98120464 3.05263664 0 0 Z " fill="#8CCFAE" transform="translate(486,68)"/>
<path d="M0 0 C1.98 0.99 1.98 0.99 4 2 C4 2.99 4 3.98 4 5 C4.66 5.66 5.32 6.32 6 7 C5.34 7.66 4.68 8.32 4 9 C0 3.375 0 3.375 0 0 Z " fill="#90D0B5" transform="translate(30,40)"/>
<path d="M0 0 C2.09749995 2.35968744 2.96905704 3.54616994 3.1875 6.75 C3.125625 7.4925 3.06375 8.235 3 9 C-0.24732932 7.37633534 -0.70155136 4.24612161 -2 1 C-1.34 0.67 -0.68 0.34 0 0 Z " fill="#8CCCB4" transform="translate(237,395)"/>
<path d="M0 0 C0.66 0 1.32 0 2 0 C0.90931332 3.77545388 0.0916909 6.47043472 -3 9 C-2.5020163 5.26512223 -2.12508244 3.18762365 0 0 Z " fill="#80CBB0" transform="translate(344,316)"/>
<path d="M0 0 C0.99 0 1.98 0 3 0 C2.39816251 2.02045442 1.72693904 4.02111039 1 6 C0.01 6.495 0.01 6.495 -1 7 C-1.04254356 5.00045254 -1.04080783 2.99958364 -1 1 C-0.67 0.67 -0.34 0.34 0 0 Z " fill="#8DCCB6" transform="translate(427,171)"/>
<path d="M0 0 C5.57142857 5.14285714 5.57142857 5.14285714 6 9 C3 8 3 8 1.3125 5.0625 C0 2 0 2 0 0 Z " fill="#62B09B" transform="translate(144,63)"/>
<path d="M0 0 C0.99 0.33 1.98 0.66 3 1 C1.68 3.31 0.36 5.62 -1 8 C-1.33 8 -1.66 8 -2 8 C-2.20086443 4.28400809 -2.1519437 3.22791555 0 0 Z " fill="#9CD5BB" transform="translate(355,297)"/>
<path d="M0 0 C1.32 0.33 2.64 0.66 4 1 C4.33 3.64 4.66 6.28 5 9 C2.67527795 6.14693203 1.2491742 3.45925163 0 0 Z " fill="#94D3B9" transform="translate(167,278)"/>
<path d="M0 0 C0.33 0.66 0.66 1.32 1 2 C-0.65 4.31 -2.3 6.62 -4 9 C-4.33 8.34 -4.66 7.68 -5 7 C-2.54545455 1.27272727 -2.54545455 1.27272727 0 0 Z " fill="#67B69D" transform="translate(294,231)"/>
<path d="M0 0 C3.93846154 3.32307692 3.93846154 3.32307692 4.25 6.75 C4.1675 7.4925 4.085 8.235 4 9 C0 4.5 0 4.5 0 0 Z " fill="#65B09B" transform="translate(218,190)"/>
</svg>
